<mxfile host="65bd71144e">
    <diagram id="EAWPYsAm2Vge6Du6YCxp" name="Page-1">
        <mxGraphModel dx="2080" dy="1188" grid="1" gridSize="10" guides="1" tooltips="1" connect="1" arrows="1" fold="1" page="1" pageScale="1" pageWidth="850" pageHeight="1100" math="0" shadow="0">
            <root>
                <mxCell id="0"/>
                <mxCell id="1" parent="0"/>
                <mxCell id="3" value="&lt;strong&gt;scrollbar-thumb-rounded&lt;/strong&gt;: Rounded corners for the scrollbar thumb.&lt;br&gt;&lt;strong&gt;scrollbar-track-rounded&lt;/strong&gt;: Rounded corners for the scrollbar track.&lt;br&gt;&lt;strong&gt;hidden&lt;/strong&gt;: Hides the element.&lt;br&gt;&lt;strong&gt;h-full&lt;/strong&gt;: Full height of the parent container.&lt;br&gt;&lt;strong&gt;flex-col&lt;/strong&gt;: Arranges children in a column direction.&lt;br&gt;&lt;strong&gt;justify-between&lt;/strong&gt;: Distributes space between children to have equal space around them.&lt;br&gt;&lt;strong&gt;overflow-auto&lt;/strong&gt;: Adds scrollbars if needed.&lt;br&gt;&lt;strong&gt;bg-background&lt;/strong&gt;: Background color/style for the element.&lt;br&gt;&lt;strong&gt;pt-3&lt;/strong&gt;: Padding-top of 0.75rem (12px).&lt;br&gt;&lt;strong&gt;transition-all&lt;/strong&gt;: Smooth transition for all properties.&lt;br&gt;&lt;strong&gt;duration-300&lt;/strong&gt;: Transition duration of 300ms.&lt;br&gt;&lt;strong&gt;scrollbar-thin&lt;/strong&gt;: Thin scrollbar.&lt;br&gt;&lt;strong&gt;scrollbar-track-transparent&lt;/strong&gt;: Transparent scrollbar track.&lt;br&gt;&lt;strong&gt;scrollbar-thumb-card&lt;/strong&gt;: Styles for the scrollbar thumb.&lt;br&gt;&lt;strong&gt;lg&lt;/strong&gt;: Displays as flex on large screens and above." style="text;html=1;strokeColor=none;fillColor=none;align=center;verticalAlign=middle;whiteSpace=wrap;rounded=0;fontFamily=Comic Sans MS;fontSize=24;fontColor=#CC00CC;" parent="1" vertex="1">
                    <mxGeometry x="35" y="10" width="1635" height="500" as="geometry"/>
                </mxCell>
                <mxCell id="4" value="" style="rounded=1;whiteSpace=wrap;html=1;fontFamily=Comic Sans MS;fontSize=24;fontColor=#CC00CC;fillColor=#CC00CC;" parent="1" vertex="1">
                    <mxGeometry x="10" y="530" width="1680" height="2740" as="geometry"/>
                </mxCell>
                <mxCell id="5" value="&lt;font color=&quot;#ffcce6&quot;&gt;&lt;strong&gt;px-4&lt;/strong&gt;: Padding-left and padding-right of 1rem (16px).&lt;/font&gt;" style="text;html=1;strokeColor=none;fillColor=none;align=center;verticalAlign=middle;whiteSpace=wrap;rounded=0;fontFamily=Comic Sans MS;fontSize=24;fontColor=#CC00CC;" parent="1" vertex="1">
                    <mxGeometry x="30" y="550" width="1610" height="30" as="geometry"/>
                </mxCell>
                <mxCell id="7" value="" style="rounded=0;whiteSpace=wrap;html=1;fontFamily=Comic Sans MS;fontSize=24;fontColor=#FFCCE6;fillColor=#FFCCE6;" parent="1" vertex="1">
                    <mxGeometry x="30" y="610" width="1640" height="1840" as="geometry"/>
                </mxCell>
                <mxCell id="8" value="" style="rounded=0;whiteSpace=wrap;html=1;" vertex="1" parent="1">
                    <mxGeometry x="40" y="700" width="1620" height="570" as="geometry"/>
                </mxCell>
                <mxCell id="9" value="&lt;font color=&quot;#1a1a1a&quot; style=&quot;font-size: 24px;&quot; face=&quot;Comic Sans MS&quot;&gt;&lt;strong&gt;relative&lt;/strong&gt;: Positions the element relative to its normal position.&lt;br&gt;&lt;/font&gt;&lt;font style=&quot;font-size: 24px;&quot; face=&quot;Comic Sans MS&quot; color=&quot;#1a1a1a&quot;&gt;&lt;strong&gt;h-10&lt;/strong&gt;: Height of 2.5rem (40px).&lt;/font&gt;&lt;font color=&quot;#1a1a1a&quot; style=&quot;font-size: 24px;&quot; face=&quot;Comic Sans MS&quot;&gt;&lt;br&gt;&lt;/font&gt;" style="text;html=1;strokeColor=none;fillColor=none;align=center;verticalAlign=middle;whiteSpace=wrap;rounded=0;" vertex="1" parent="1">
                    <mxGeometry x="40" y="620" width="1615" height="80" as="geometry"/>
                </mxCell>
                <mxCell id="11" value="&lt;font color=&quot;#cc00cc&quot;&gt;&lt;strong&gt;flex&lt;/strong&gt;: Flexbox layout for the container.&lt;br&gt;&lt;strong&gt;items-center&lt;/strong&gt;: Aligns items vertically to the center.&lt;br&gt;&lt;/font&gt;" style="text;html=1;strokeColor=none;fillColor=none;align=center;verticalAlign=middle;whiteSpace=wrap;rounded=0;fontFamily=Comic Sans MS;fontSize=24;fontColor=#1A1A1A;" vertex="1" parent="1">
                    <mxGeometry x="60" y="720" width="600" height="70" as="geometry"/>
                </mxCell>
                <mxCell id="12" value="" style="rounded=0;whiteSpace=wrap;html=1;fontFamily=Comic Sans MS;fontSize=24;fontColor=#ffffff;fillColor=#1ba1e2;strokeColor=#006EAF;" vertex="1" parent="1">
                    <mxGeometry x="50" y="800" width="810" height="450" as="geometry"/>
                </mxCell>
                <mxCell id="13" value="" style="rounded=0;whiteSpace=wrap;html=1;fontFamily=Comic Sans MS;fontSize=24;fontColor=#ffffff;fillColor=#60a917;strokeColor=#2D7600;" vertex="1" parent="1">
                    <mxGeometry x="1120" y="1210" width="330" height="60" as="geometry"/>
                </mxCell>
                <mxCell id="14" value="Svg Icon" style="text;html=1;align=center;verticalAlign=middle;whiteSpace=wrap;rounded=0;fontFamily=Comic Sans MS;fontSize=24;fillColor=#60a917;fontColor=#ffffff;strokeColor=#2D7600;" vertex="1" parent="1">
                    <mxGeometry x="1160" y="1220" width="210" height="30" as="geometry"/>
                </mxCell>
                <mxCell id="15" value="" style="rounded=0;whiteSpace=wrap;html=1;fontFamily=Comic Sans MS;fontSize=24;fontColor=#ffffff;fillColor=#FFFF00;strokeColor=#2D7600;" vertex="1" parent="1">
                    <mxGeometry x="80" y="1190" width="250" height="60" as="geometry"/>
                </mxCell>
                <mxCell id="16" value="Svg Icon" style="text;html=1;strokeColor=none;fillColor=none;align=center;verticalAlign=middle;whiteSpace=wrap;rounded=0;fontFamily=Comic Sans MS;fontSize=24;fontColor=#CC00CC;" vertex="1" parent="1">
                    <mxGeometry x="110" y="1210" width="190" height="30" as="geometry"/>
                </mxCell>
                <mxCell id="17" value="" style="rounded=1;whiteSpace=wrap;html=1;fontFamily=Comic Sans MS;fontSize=24;fontColor=#CC00CC;" vertex="1" parent="1">
                    <mxGeometry x="605" y="1190" width="220" height="60" as="geometry"/>
                </mxCell>
                <mxCell id="18" value="Art Stream" style="text;html=1;strokeColor=none;fillColor=none;align=center;verticalAlign=middle;whiteSpace=wrap;rounded=0;fontFamily=Comic Sans MS;fontSize=24;fontColor=#CC00CC;" vertex="1" parent="1">
                    <mxGeometry x="630" y="1210" width="170" height="30" as="geometry"/>
                </mxCell>
                <mxCell id="19" value="&lt;font color=&quot;#ffff00&quot;&gt;&lt;strong style=&quot;&quot;&gt;flex&lt;/strong&gt;: Flexbox layout for the container.&lt;br&gt;&lt;strong style=&quot;&quot;&gt;cursor-pointer&lt;/strong&gt;: Changes the cursor to a pointer when hovered.&lt;br&gt;&lt;strong style=&quot;&quot;&gt;items-center&lt;/strong&gt;: Aligns items vertically to the center.&lt;br&gt;&lt;strong style=&quot;&quot;&gt;rounded&lt;/strong&gt;: Rounded corners.&lt;br&gt;&lt;strong style=&quot;&quot;&gt;bg-primary&lt;/strong&gt;: Primary background color.&lt;br&gt;&lt;strong style=&quot;&quot;&gt;p-2&lt;/strong&gt;: Padding of 0.5rem (8px).&lt;br&gt;&lt;strong style=&quot;&quot;&gt;focus:outline-none&amp;nbsp;&lt;/strong&gt;: Removes the default outline on focus.&lt;br&gt;&lt;strong style=&quot;&quot;&gt;focus:ring-1&amp;nbsp;&lt;/strong&gt;: Adds a ring around the element on focus.&lt;/font&gt;" style="text;html=1;strokeColor=none;fillColor=none;align=center;verticalAlign=middle;whiteSpace=wrap;rounded=0;fontFamily=Comic Sans MS;fontSize=24;fontColor=#CC00CC;" vertex="1" parent="1">
                    <mxGeometry x="60" y="810" width="500" height="370" as="geometry"/>
                </mxCell>
                <mxCell id="22" value="&lt;font color=&quot;#1a1a1a&quot;&gt;&lt;strong&gt;ml-1&lt;/strong&gt;: Margin-left of 0.25rem (4px).&lt;br&gt;&lt;strong&gt;pl-2&lt;/strong&gt;: Padding-left of 0.5rem (8px).&lt;br&gt;&lt;strong&gt;text-sm&lt;/strong&gt;: Font size of 0.875rem (14px).&lt;br&gt;&lt;strong&gt;font-bold&lt;/strong&gt;: Bold font weight.&lt;br&gt;&lt;strong&gt;text-foreground&lt;/strong&gt;: Foreground text color.&lt;/font&gt;" style="text;html=1;align=center;verticalAlign=middle;whiteSpace=wrap;rounded=0;fontFamily=Comic Sans MS;fontSize=24;" vertex="1" parent="1">
                    <mxGeometry x="580" y="820" width="270" height="350" as="geometry"/>
                </mxCell>
                <mxCell id="23" value="&lt;font style=&quot;font-size: 24px;&quot; color=&quot;#60a917&quot;&gt;&lt;strong style=&quot;&quot;&gt;absolute&lt;/strong&gt;: Positions the element absolutely within its relative parent.&lt;br&gt;&lt;strong style=&quot;&quot;&gt;top-2&lt;/strong&gt;: Top position of 0.5rem (8px).&lt;br&gt;&lt;strong style=&quot;&quot;&gt;right-2&lt;/strong&gt;: Right position of 0.5rem (8px).&lt;br&gt;&lt;strong style=&quot;&quot;&gt;flex&lt;/strong&gt;: Flexbox layout for the container.&lt;br&gt;&lt;strong style=&quot;&quot;&gt;h-5&lt;/strong&gt;: Height of 1.25rem (20px).&lt;br&gt;&lt;strong style=&quot;&quot;&gt;w-5&lt;/strong&gt;: Width of 1.25rem (20px).&lt;br&gt;&lt;strong style=&quot;&quot;&gt;items-center&lt;/strong&gt;: Aligns items vertically to the center.&lt;br&gt;&lt;/font&gt;&lt;li&gt;&lt;font size=&quot;3&quot; style=&quot;font-size: 24px;&quot; color=&quot;#60a917&quot;&gt;&lt;strong&gt;rounded&lt;/strong&gt;: Rounded corners.&lt;/font&gt;&lt;/li&gt;&lt;li&gt;&lt;font size=&quot;3&quot; style=&quot;font-size: 24px;&quot; color=&quot;#60a917&quot;&gt;&lt;strong&gt;text-muted-foreground/50&lt;/strong&gt;: Muted foreground text color with 50% opacity.&lt;br&gt;&lt;/font&gt;&lt;/li&gt;&lt;li&gt;&lt;font size=&quot;3&quot; style=&quot;font-size: 24px;&quot; color=&quot;#60a917&quot;&gt;&lt;strong&gt;transition-all&lt;/strong&gt;: Smooth transition for all properties.&lt;/font&gt;&lt;/li&gt;&lt;li&gt;&lt;font size=&quot;3&quot; style=&quot;font-size: 24px;&quot; color=&quot;#60a917&quot;&gt;&lt;strong&gt;duration-300&lt;/strong&gt;: Transition duration of 300ms.&lt;br&gt;&lt;/font&gt;&lt;/li&gt;&lt;li&gt;&lt;font size=&quot;3&quot; style=&quot;font-size: 24px;&quot; color=&quot;#60a917&quot;&gt;&lt;strong style=&quot;&quot;&gt;focus:outline-none&amp;nbsp;&lt;/strong&gt;: Removes the default outline on focus.&lt;/font&gt;&lt;/li&gt;&lt;li&gt;&lt;font size=&quot;3&quot; color=&quot;#60a917&quot; style=&quot;font-size: 24px;&quot;&gt;&lt;strong style=&quot;background-color: initial;&quot;&gt;hover&lt;/strong&gt;&lt;span style=&quot;background-color: initial;&quot;&gt;: Changes text color on hover.&lt;/span&gt;&lt;/font&gt;&lt;/li&gt;&lt;li&gt;&lt;font size=&quot;3&quot; style=&quot;font-size: 24px;&quot; color=&quot;#60a917&quot;&gt;&lt;strong&gt;rotate-180&lt;/strong&gt;: Rotates the element by 180 degrees.&lt;br&gt;&lt;/font&gt;&lt;/li&gt;&lt;li&gt;&lt;/li&gt;" style="text;html=1;strokeColor=none;fillColor=none;align=center;verticalAlign=middle;whiteSpace=wrap;rounded=0;fontFamily=Comic Sans MS;fontSize=24;fontColor=#1A1A1A;" vertex="1" parent="1">
                    <mxGeometry x="880" y="730" width="770" height="490" as="geometry"/>
                </mxCell>
                <mxCell id="24" value="&lt;strong&gt;pt-3&lt;/strong&gt;: Padding-top of 0.75rem (12px)." style="text;html=1;strokeColor=none;fillColor=none;align=center;verticalAlign=middle;whiteSpace=wrap;rounded=0;fontFamily=Comic Sans MS;fontSize=24;fontColor=#60A917;" vertex="1" parent="1">
                    <mxGeometry x="470" y="1290" width="720" height="30" as="geometry"/>
                </mxCell>
                <mxCell id="25" value="&lt;strong&gt;border-dashed&lt;/strong&gt;: Dashed border style.&lt;br&gt;&lt;strong&gt;border-muted&lt;/strong&gt;: Muted border color." style="rounded=1;whiteSpace=wrap;html=1;fontFamily=Comic Sans MS;fontSize=24;fontColor=#60A917;fillColor=#FFFF00;" vertex="1" parent="1">
                    <mxGeometry x="35" y="1330" width="1620" height="50" as="geometry"/>
                </mxCell>
                <mxCell id="27" value="&lt;font style=&quot;font-size: 72px;&quot;&gt;App Side Bar Menu&lt;/font&gt;" style="rounded=1;whiteSpace=wrap;html=1;fontFamily=Comic Sans MS;fontSize=24;fontColor=#ffffff;fillColor=#a20025;strokeColor=#6F0000;" vertex="1" parent="1">
                    <mxGeometry x="60" y="1390" width="1590" height="1050" as="geometry"/>
                </mxCell>
                <mxCell id="29" value="&lt;strong&gt;mx-4&lt;/strong&gt;: Margin-left and margin-right of 1rem (16px).&lt;br&gt;&lt;strong&gt;my-4&lt;/strong&gt;: Margin-top and margin-bottom of 1rem (16px).&lt;br&gt;&lt;strong&gt;space-y-1&lt;/strong&gt;: Adds vertical space of 0.25rem (4px) between children." style="text;html=1;strokeColor=none;fillColor=none;align=center;verticalAlign=middle;whiteSpace=wrap;rounded=0;fontFamily=Comic Sans MS;fontSize=24;fontColor=#FFFF00;" vertex="1" parent="1">
                    <mxGeometry x="25" y="2460" width="1610" height="100" as="geometry"/>
                </mxCell>
                <mxCell id="30" value="" style="rounded=1;whiteSpace=wrap;html=1;fontFamily=Comic Sans MS;fontSize=24;fontColor=#FFFF00;fillColor=#FFFF00;" vertex="1" parent="1">
                    <mxGeometry x="30" y="2570" width="1640" height="690" as="geometry"/>
                </mxCell>
                <mxCell id="32" value="&lt;strong&gt;group&lt;/strong&gt;: Sets the element as a group for child selectors.&lt;br&gt;&lt;strong&gt;flex&lt;/strong&gt;: Flexbox layout for the container.&lt;br&gt;&lt;strong&gt;h-10&lt;/strong&gt;: Height of 2.5rem (40px).&lt;br&gt;&lt;strong&gt;cursor-pointer&lt;/strong&gt;: Changes the cursor to a pointer when hovered.&lt;br&gt;&lt;strong&gt;items-center&lt;/strong&gt;: Aligns items vertically to the center.&lt;br&gt;&lt;strong&gt;rounded&lt;/strong&gt;: Rounded corners.&lt;br&gt;&lt;strong&gt;p-2&lt;/strong&gt;: Padding of 0.5rem (8px).&lt;br&gt;&lt;strong&gt;hover:bg-card&lt;/strong&gt;: Changes background color on hover." style="text;html=1;strokeColor=none;fillColor=none;align=center;verticalAlign=middle;whiteSpace=wrap;rounded=0;fontFamily=Comic Sans MS;fontSize=24;fontColor=#1A1A1A;" vertex="1" parent="1">
                    <mxGeometry x="40" y="2580" width="1590" height="220" as="geometry"/>
                </mxCell>
                <mxCell id="35" value="" style="rounded=1;whiteSpace=wrap;html=1;fontFamily=Comic Sans MS;fontSize=24;fillColor=#b0e3e6;strokeColor=#0e8088;" vertex="1" parent="1">
                    <mxGeometry x="40" y="2810" width="1610" height="440" as="geometry"/>
                </mxCell>
                <mxCell id="36" value="&lt;strong style=&quot;color: rgb(26, 26, 26);&quot;&gt;h-5&lt;/strong&gt;&lt;span style=&quot;color: rgb(26, 26, 26);&quot;&gt;: Height of 1.25rem (20px).&lt;/span&gt;&lt;br style=&quot;color: rgb(26, 26, 26);&quot;&gt;&lt;strong style=&quot;color: rgb(26, 26, 26);&quot;&gt;w-5&lt;/strong&gt;&lt;span style=&quot;color: rgb(26, 26, 26);&quot;&gt;: Width of 1.25rem (20px).&lt;/span&gt;&lt;br style=&quot;color: rgb(26, 26, 26);&quot;&gt;&lt;strong style=&quot;color: rgb(26, 26, 26);&quot;&gt;text-muted-foreground/50&lt;/strong&gt;&lt;span style=&quot;color: rgb(26, 26, 26);&quot;&gt;: Muted foreground text color with 50% opacity.&lt;/span&gt;" style="text;html=1;align=center;verticalAlign=middle;whiteSpace=wrap;rounded=0;fontFamily=Comic Sans MS;fontSize=24;" vertex="1" parent="1">
                    <mxGeometry x="50" y="3010" width="390" height="160" as="geometry"/>
                </mxCell>
                <mxCell id="37" value="Svg Icon" style="rounded=1;whiteSpace=wrap;html=1;fontFamily=Comic Sans MS;fontSize=24;" vertex="1" parent="1">
                    <mxGeometry x="90" y="3180" width="280" height="60" as="geometry"/>
                </mxCell>
                <mxCell id="38" value="&lt;strong&gt;ml-1&lt;/strong&gt;: Margin-left of 0.25rem (4px).&lt;br&gt;&lt;strong&gt;truncate&lt;/strong&gt;: Truncates text with ellipsis if it overflows.&lt;br&gt;&lt;strong&gt;text-[10px]&lt;/strong&gt;: Font size of 10px.&lt;br&gt;&lt;strong&gt;font-semibold&lt;/strong&gt;: Semi-bold font weight.&lt;br&gt;&lt;strong&gt;tracking-wide&lt;/strong&gt;: Wide letter spacing.&lt;br&gt;&lt;strong style=&quot;&quot;&gt;focus:outline-none&amp;nbsp;&lt;/strong&gt;: Removes the default outline on focus." style="text;html=1;strokeColor=none;fillColor=none;align=center;verticalAlign=middle;whiteSpace=wrap;rounded=0;fontFamily=Comic Sans MS;fontSize=24;fontColor=#333333;" vertex="1" parent="1">
                    <mxGeometry x="460" y="2820" width="700" height="170" as="geometry"/>
                </mxCell>
                <mxCell id="39" value="" style="rounded=1;whiteSpace=wrap;html=1;fontFamily=Comic Sans MS;fontSize=24;fontColor=#000000;fillColor=#fa6800;strokeColor=#C73500;" vertex="1" parent="1">
                    <mxGeometry x="440" y="3000" width="730" height="240" as="geometry"/>
                </mxCell>
                <mxCell id="40" value="App Version" style="rounded=1;whiteSpace=wrap;html=1;fontFamily=Comic Sans MS;fontSize=24;" vertex="1" parent="1">
                    <mxGeometry x="590" y="3170" width="440" height="60" as="geometry"/>
                </mxCell>
                <mxCell id="41" value="&lt;strong&gt;rounded-lg&lt;/strong&gt;: Rounded large corners.&lt;br&gt;&lt;strong&gt;bg-primary/10&lt;/strong&gt;: Primary background color with 10% opacity.&lt;br&gt;&lt;strong&gt;mx-4&lt;/strong&gt;: Margin-left and margin-right of 1rem (16px).&lt;br&gt;&lt;strong&gt;font-semibold&lt;/strong&gt;: Semi-bold font weight." style="text;html=1;strokeColor=none;fillColor=none;align=center;verticalAlign=middle;whiteSpace=wrap;rounded=0;fontFamily=Comic Sans MS;fontSize=24;fontColor=#333333;" vertex="1" parent="1">
                    <mxGeometry x="450" y="3010" width="710" height="150" as="geometry"/>
                </mxCell>
                <mxCell id="42" value="" style="rounded=1;whiteSpace=wrap;html=1;fontFamily=Comic Sans MS;fontSize=24;fontColor=#ffffff;fillColor=#76608a;strokeColor=#432D57;" vertex="1" parent="1">
                    <mxGeometry x="1180" y="2900" width="460" height="340" as="geometry"/>
                </mxCell>
                <mxCell id="43" value="&lt;strong&gt;w-full&lt;/strong&gt;: Full width of the parent container." style="text;html=1;strokeColor=none;fillColor=none;align=center;verticalAlign=middle;whiteSpace=wrap;rounded=0;fontFamily=Comic Sans MS;fontSize=24;fontColor=#333333;" vertex="1" parent="1">
                    <mxGeometry x="1180" y="2820" width="450" height="70" as="geometry"/>
                </mxCell>
                <mxCell id="44" value="App Version" style="rounded=1;whiteSpace=wrap;html=1;fontFamily=Comic Sans MS;fontSize=24;" vertex="1" parent="1">
                    <mxGeometry x="1290" y="3170" width="280" height="60" as="geometry"/>
                </mxCell>
                <mxCell id="45" value="&lt;strong&gt;absolute&lt;/strong&gt;: Positions the element absolutely within its relative parent.&lt;br&gt;&lt;strong&gt;w-auto&lt;/strong&gt;: Auto width.&lt;br&gt;&lt;strong&gt;min-w-max&lt;/strong&gt;: Minimum width based on content.&lt;br&gt;&lt;strong&gt;origin-left&lt;/strong&gt;: Transformation origin at the left.&lt;br&gt;&lt;strong&gt;scale-0&lt;/strong&gt;: Scales the element to 0 (hidden).&lt;br&gt;&lt;strong&gt;rounded&lt;/strong&gt;: Rounded corners." style="text;html=1;strokeColor=none;fillColor=none;align=center;verticalAlign=middle;whiteSpace=wrap;rounded=0;fontFamily=Comic Sans MS;fontSize=24;fontColor=#333333;" vertex="1" parent="1">
                    <mxGeometry x="1190" y="2910" width="430" height="250" as="geometry"/>
                </mxCell>
            </root>
        </mxGraphModel>
    </diagram>
</mxfile>